<svg xmlns="http://www.w3.org/2000/svg" width="1280" height="748" viewBox="0 0 1280 748" role="img" aria-labelledby="cumulative-loss-difference-title cumulative-loss-difference-desc">
<title id="cumulative-loss-difference-title">Cumulative difference in forecast loss</title>
<desc id="cumulative-loss-difference-desc">Session-by-session cumulative loss difference for models with and without option flow.</desc>
<defs><marker id="head" markerWidth="8" markerHeight="6" refX="7" refY="3" orient="auto"><polygon points="0 0, 8 3, 0 6" fill="#5a6570"/></marker><marker id="head-accent" markerWidth="8" markerHeight="6" refX="7" refY="3" orient="auto"><polygon points="0 0, 8 3, 0 6" fill="#e8a33d"/></marker><marker id="head-link" markerWidth="8" markerHeight="6" refX="7" refY="3" orient="auto"><polygon points="0 0, 8 3, 0 6" fill="#123c69"/></marker></defs>
<rect width="100%" height="100%" fill="#ffffff"/>
<rect x="32" y="108" width="592" height="540" rx="8" fill="none" stroke="#c9d2da" stroke-width="1"/>
<line x1="82" y1="610.00" x2="497" y2="610.00" stroke="#e1e6ea" stroke-width="1"/>
<line x1="82" y1="500.00" x2="497" y2="500.00" stroke="#e1e6ea" stroke-width="1"/>
<line x1="82" y1="390.00" x2="497" y2="390.00" stroke="#e1e6ea" stroke-width="1"/>
<line x1="82" y1="280.00" x2="497" y2="280.00" stroke="#e1e6ea" stroke-width="1"/>
<line x1="82" y1="170.00" x2="497" y2="170.00" stroke="#e1e6ea" stroke-width="1"/>
<line x1="82" y1="422.73" x2="497" y2="422.73" stroke="#1a2332" stroke-width="1.3"/>
<line x1="82.00" y1="610" x2="82.00" y2="615" stroke="#c9d2da"/>
<line x1="289.50" y1="610" x2="289.50" y2="615" stroke="#c9d2da"/>
<line x1="497.00" y1="610" x2="497.00" y2="615" stroke="#c9d2da"/>
<rect x="656" y="108" width="592" height="540" rx="8" fill="none" stroke="#c9d2da" stroke-width="1"/>
<line x1="706" y1="610.00" x2="1121" y2="610.00" stroke="#e1e6ea" stroke-width="1"/>
<line x1="706" y1="500.00" x2="1121" y2="500.00" stroke="#e1e6ea" stroke-width="1"/>
<line x1="706" y1="390.00" x2="1121" y2="390.00" stroke="#e1e6ea" stroke-width="1"/>
<line x1="706" y1="280.00" x2="1121" y2="280.00" stroke="#e1e6ea" stroke-width="1"/>
<line x1="706" y1="170.00" x2="1121" y2="170.00" stroke="#e1e6ea" stroke-width="1"/>
<line x1="706" y1="422.73" x2="1121" y2="422.73" stroke="#1a2332" stroke-width="1.3"/>
<line x1="706.00" y1="610" x2="706.00" y2="615" stroke="#c9d2da"/>
<line x1="911.70" y1="610" x2="911.70" y2="615" stroke="#c9d2da"/>
<line x1="1121.00" y1="610" x2="1121.00" y2="615" stroke="#c9d2da"/>
<text x="32" y="30" fill="#7a8593" font-family="'Cascadia Mono','SF Mono',Consolas,monospace" font-size="10" letter-spacing="0.14em">HOW FORECAST LOSS ACCUMULATED</text><text x="32" y="62" fill="#1a2332" font-family="'Segoe UI',Helvetica,Arial,sans-serif" font-size="24" font-weight="600">Cumulative difference in forecast loss</text><text x="32" y="88" fill="#5a6570" font-family="'Segoe UI',Helvetica,Arial,sans-serif" font-size="14">The same scored sessions compare forecasts without and with option flow</text>
<text x="52" y="128" fill="#1a2332" font-family="'Segoe UI',Helvetica,Arial,sans-serif" font-size="16" font-weight="600">model development</text><text x="52" y="150" fill="#5a6570" font-family="'Segoe UI',Helvetica,Arial,sans-serif" font-size="12">389-session window; 156 scored dates</text>
<text x="74" y="614.00" fill="#7a8593" font-family="'Cascadia Mono','SF Mono',Consolas,monospace" font-size="10" text-anchor="end">-0.105</text>
<text x="74" y="504.00" fill="#7a8593" font-family="'Cascadia Mono','SF Mono',Consolas,monospace" font-size="10" text-anchor="end">-0.043</text>
<text x="74" y="394.00" fill="#7a8593" font-family="'Cascadia Mono','SF Mono',Consolas,monospace" font-size="10" text-anchor="end">+0.018</text>
<text x="74" y="284.00" fill="#7a8593" font-family="'Cascadia Mono','SF Mono',Consolas,monospace" font-size="10" text-anchor="end">+0.080</text>
<text x="74" y="174.00" fill="#7a8593" font-family="'Cascadia Mono','SF Mono',Consolas,monospace" font-size="10" text-anchor="end">+0.142</text>
<text x="82.00" y="630" fill="#7a8593" font-family="'Cascadia Mono','SF Mono',Consolas,monospace" font-size="10" text-anchor="middle">Aug 2024</text>
<text x="289.50" y="630" fill="#7a8593" font-family="'Cascadia Mono','SF Mono',Consolas,monospace" font-size="10" text-anchor="middle">May 2025</text>
<text x="497.00" y="630" fill="#7a8593" font-family="'Cascadia Mono','SF Mono',Consolas,monospace" font-size="10" text-anchor="middle">Mar 2026</text>
<path d="M 339.47 421.35 L 341.55 420.19 L 342.24 419.27 L 342.94 399.14 L 343.63 399.67 L 344.32 398.81 L 346.41 398.64 L 347.10 396.01 L 347.79 394.08 L 348.49 398.85 L 349.18 391.97 L 351.26 387.46 L 351.96 391.50 L 352.65 388.27 L 353.35 393.73 L 354.04 402.84 L 356.82 406.07 L 357.51 406.65 L 358.20 409.66 L 358.90 412.64 L 360.98 414.12 L 361.67 414.60 L 362.37 416.26 L 363.06 416.00 L 363.76 410.54 L 365.84 414.74 L 366.53 414.53 L 367.23 394.15 L 367.92 389.75 L 368.61 421.52 L 370.70 408.30 L 371.39 404.57 L 372.08 406.39 L 372.78 403.23 L 373.47 402.20 L 375.55 401.59 L 376.25 402.28 L 376.94 401.79 L 377.64 401.02 L 378.33 403.37 L 380.41 403.18 L 381.11 400.05 L 381.80 401.54 L 382.49 395.35 L 383.19 406.21 L 385.27 401.45 L 385.96 402.56 L 386.66 400.35 L 387.35 394.68 L 388.05 395.28 L 390.13 404.31 L 390.82 404.35 L 391.52 397.92 L 392.21 405.19 L 392.90 409.20 L 394.98 404.69 L 395.68 396.62 L 396.37 384.35 L 397.07 383.54 L 397.76 386.23 L 399.84 382.60 L 400.54 384.84 L 401.23 386.08 L 401.92 378.50 L 402.62 380.58 L 404.70 378.36 L 405.39 381.35 L 406.09 376.71 L 406.78 374.84 L 407.48 377.10 L 409.56 381.40 L 410.25 382.38 L 410.95 382.60 L 411.64 352.76 L 412.33 355.66 L 414.42 353.87 L 415.11 356.97 L 415.80 364.58 L 417.19 375.58 L 419.27 371.77 L 419.97 366.19 L 420.66 366.73 L 421.36 371.90 L 422.05 373.17 L 424.13 373.99 L 424.83 372.89 L 425.52 365.47 L 426.21 369.88 L 426.91 371.12 L 428.99 369.77 L 429.68 369.05 L 430.38 367.42 L 431.07 370.02 L 431.77 370.31 L 433.85 365.34 L 434.54 364.86 L 435.24 371.90 L 436.62 375.67 L 438.71 373.85 L 439.40 377.42 L 440.09 385.78 L 441.48 386.02 L 443.56 381.45 L 444.26 378.40 L 444.95 380.11 L 445.65 386.45 L 446.34 390.65 L 448.42 387.88 L 449.12 388.47 L 449.81 388.87 L 450.50 393.55 L 451.20 389.62 L 453.97 389.82 L 454.67 353.79 L 455.36 359.89 L 456.06 358.00 L 458.14 357.09 L 458.83 356.26 L 459.53 345.93 L 460.22 349.61 L 460.91 350.64 L 462.99 355.59 L 463.69 354.61 L 464.38 358.25 L 465.08 359.59 L 465.77 359.55 L 467.85 354.46 L 468.55 356.39 L 469.24 372.71 L 469.93 369.20 L 470.63 364.69 L 473.40 370.38 L 474.10 369.40 L 474.79 384.67 L 475.49 383.41 L 477.57 371.57 L 478.26 377.18 L 478.96 371.56 L 479.65 377.94 L 480.34 378.79 L 482.43 376.27 L 483.12 372.96 L 483.81 366.59 L 484.51 358.78 L 485.20 357.91 L 487.28 372.50 L 487.98 378.84 L 488.67 376.24 L 489.37 379.17 L 490.06 382.98 L 492.14 399.02 L 492.84 414.17 L 493.53 413.87 L 494.22 396.15 L 494.92 394.98 L 497.00 388.60" fill="none" stroke="#1a2332" stroke-width="2.2" stroke-linecap="round" stroke-linejoin="round"/>
<path d="M 339.47 420.58 L 341.55 419.84 L 342.24 418.29 L 342.94 404.89 L 343.63 404.62 L 344.32 401.74 L 346.41 401.69 L 347.10 397.81 L 347.79 397.64 L 348.49 399.79 L 349.18 395.89 L 351.26 394.20 L 351.96 399.71 L 352.65 392.97 L 353.35 395.60 L 354.04 397.43 L 356.82 400.49 L 357.51 400.47 L 358.20 400.97 L 358.90 400.60 L 360.98 402.92 L 361.67 402.57 L 362.37 405.50 L 363.06 401.76 L 363.76 399.73 L 365.84 403.53 L 366.53 402.81 L 367.23 391.68 L 367.92 388.45 L 368.61 413.69 L 370.70 407.41 L 371.39 405.97 L 372.08 407.98 L 372.78 406.26 L 373.47 404.73 L 375.55 404.30 L 376.25 404.92 L 376.94 403.63 L 377.64 406.25 L 378.33 405.97 L 380.41 404.04 L 381.11 403.87 L 381.80 402.17 L 382.49 395.52 L 383.19 394.36 L 385.27 391.13 L 385.96 392.39 L 386.66 393.43 L 387.35 391.97 L 388.05 390.65 L 390.13 404.75 L 390.82 401.07 L 391.52 394.90 L 392.21 397.43 L 392.90 399.67 L 394.98 396.26 L 395.68 389.35 L 396.37 378.91 L 397.07 377.25 L 397.76 376.10 L 399.84 373.48 L 400.54 376.56 L 401.23 388.51 L 401.92 384.10 L 402.62 383.98 L 404.70 384.06 L 405.39 387.13 L 406.09 381.78 L 406.78 380.87 L 407.48 382.44 L 409.56 386.84 L 410.25 386.71 L 410.95 385.98 L 411.64 359.03 L 412.33 361.75 L 414.42 360.04 L 415.11 365.76 L 415.80 370.10 L 417.19 378.90 L 419.27 377.10 L 419.97 372.19 L 420.66 370.62 L 421.36 374.88 L 422.05 376.85 L 424.13 383.23 L 424.83 381.75 L 425.52 376.61 L 426.21 381.66 L 426.91 380.26 L 428.99 380.59 L 429.68 382.40 L 430.38 382.12 L 431.07 385.63 L 431.77 382.60 L 433.85 382.36 L 434.54 384.29 L 435.24 388.96 L 436.62 391.25 L 438.71 397.50 L 439.40 404.11 L 440.09 410.35 L 441.48 409.34 L 443.56 407.25 L 444.26 400.71 L 444.95 401.92 L 445.65 405.01 L 446.34 410.62 L 448.42 406.26 L 449.12 406.93 L 449.81 408.69 L 450.50 409.24 L 451.20 407.14 L 453.97 407.92 L 454.67 379.71 L 455.36 381.67 L 456.06 381.14 L 458.14 381.25 L 458.83 378.35 L 459.53 365.60 L 460.22 368.46 L 460.91 368.52 L 462.99 371.33 L 463.69 366.56 L 464.38 367.36 L 465.08 368.74 L 465.77 369.60 L 467.85 367.39 L 468.55 370.87 L 469.24 372.42 L 469.93 369.20 L 470.63 367.65 L 473.40 374.80 L 474.10 382.59 L 474.79 391.17 L 475.49 395.88 L 477.57 398.13 L 478.26 404.52 L 478.96 406.14 L 479.65 409.49 L 480.34 410.09 L 482.43 408.45 L 483.12 405.29 L 483.81 405.36 L 484.51 396.96 L 485.20 397.30 L 487.28 399.00 L 487.98 402.68 L 488.67 404.16 L 489.37 402.78 L 490.06 404.69 L 492.14 365.76 L 492.84 377.78 L 493.53 379.16 L 494.22 342.33 L 494.92 342.27 L 497.00 343.99" fill="none" stroke="#123c69" stroke-width="2.2" stroke-linecap="round" stroke-linejoin="round" stroke-dasharray="8 5"/>
<path d="M 339.47 418.79 L 341.55 418.23 L 342.24 414.43 L 342.94 393.23 L 343.63 391.28 L 344.32 389.85 L 346.41 388.12 L 347.10 388.46 L 347.79 390.25 L 348.49 391.50 L 349.18 395.32 L 351.26 396.68 L 351.96 394.27 L 352.65 393.83 L 353.35 394.54 L 354.04 390.48 L 356.82 398.12 L 357.51 395.79 L 358.20 395.44 L 358.90 392.33 L 360.98 390.90 L 361.67 390.85 L 362.37 392.41 L 363.06 390.42 L 363.76 390.56 L 365.84 390.69 L 366.53 394.69 L 367.23 438.14 L 367.92 437.40 L 368.61 442.21 L 370.70 438.49 L 371.39 440.07 L 372.08 437.86 L 372.78 442.38 L 373.47 443.21 L 375.55 443.40 L 376.25 441.27 L 376.94 441.11 L 377.64 437.03 L 378.33 427.61 L 380.41 427.27 L 381.11 429.77 L 381.80 431.87 L 382.49 436.47 L 383.19 449.09 L 385.27 450.18 L 385.96 447.62 L 386.66 435.05 L 387.35 422.64 L 388.05 421.11 L 390.13 429.93 L 390.82 427.03 L 391.52 416.80 L 392.21 411.20 L 392.90 415.95 L 394.98 421.38 L 395.68 398.15 L 396.37 390.21 L 397.07 389.37 L 397.76 384.30 L 399.84 384.17 L 400.54 382.05 L 401.23 378.56 L 401.92 378.16 L 402.62 373.27 L 404.70 372.41 L 405.39 377.16 L 406.09 371.77 L 406.78 366.76 L 407.48 365.06 L 409.56 362.54 L 410.25 353.70 L 410.95 355.30 L 411.64 350.62 L 412.33 344.65 L 414.42 347.48 L 415.11 348.62 L 415.80 350.21 L 417.19 358.24 L 419.27 357.16 L 419.97 361.37 L 420.66 355.95 L 421.36 358.12 L 422.05 359.00 L 424.13 371.66 L 424.83 372.28 L 425.52 359.41 L 426.21 372.83 L 426.91 370.88 L 428.99 370.86 L 429.68 374.48 L 430.38 371.84 L 431.07 371.90 L 431.77 370.06 L 433.85 369.97 L 434.54 374.07 L 435.24 381.45 L 436.62 381.74 L 438.71 381.92 L 439.40 379.24 L 440.09 377.31 L 441.48 376.05 L 443.56 374.85 L 444.26 366.69 L 444.95 367.19 L 445.65 368.74 L 446.34 369.64 L 448.42 366.55 L 449.12 367.92 L 449.81 368.44 L 450.50 369.46 L 451.20 367.66 L 453.97 364.62 L 454.67 325.84 L 455.36 328.53 L 456.06 328.95 L 458.14 333.76 L 458.83 334.05 L 459.53 329.42 L 460.22 332.02 L 460.91 331.67 L 462.99 330.96 L 463.69 323.94 L 464.38 322.83 L 465.08 321.58 L 465.77 321.73 L 467.85 326.87 L 468.55 330.46 L 469.24 314.13 L 469.93 310.77 L 470.63 313.05 L 473.40 313.09 L 474.10 301.42 L 474.79 298.62 L 475.49 296.72 L 477.57 301.55 L 478.26 301.76 L 478.96 292.81 L 479.65 291.88 L 480.34 292.21 L 482.43 292.73 L 483.12 289.07 L 483.81 290.71 L 484.51 284.38 L 485.20 284.84 L 487.28 283.99 L 487.98 276.44 L 488.67 287.15 L 489.37 280.40 L 490.06 281.33 L 492.14 285.61 L 492.84 283.60 L 493.53 290.17 L 494.22 273.46 L 494.92 275.26 L 497.00 277.70" fill="none" stroke="#5a6570" stroke-width="2.2" stroke-linecap="round" stroke-linejoin="round" stroke-dasharray="2 4"/>
<line x1="497" y1="277.70" x2="505" y2="277.70" stroke="#5a6570" stroke-width="1"/><text x="509" y="281.70" fill="#5a6570" font-family="'Segoe UI',Helvetica,Arial,sans-serif" font-size="11">LightGBM +0.081</text>
<line x1="497" y1="343.99" x2="505" y2="343.99" stroke="#123c69" stroke-width="1"/><text x="509" y="347.99" fill="#123c69" font-family="'Segoe UI',Helvetica,Arial,sans-serif" font-size="11">ridge-log +0.044</text>
<line x1="497" y1="388.60" x2="505" y2="388.60" stroke="#1a2332" stroke-width="1"/><text x="509" y="392.60" fill="#1a2332" font-family="'Segoe UI',Helvetica,Arial,sans-serif" font-size="11">Gamma GLM +0.019</text>
<text x="676" y="128" fill="#1a2332" font-family="'Segoe UI',Helvetica,Arial,sans-serif" font-size="16" font-weight="600">held-out check</text><text x="676" y="150" fill="#5a6570" font-family="'Segoe UI',Helvetica,Arial,sans-serif" font-size="12">80-session window; 32 scored dates</text>
<text x="706.00" y="630" fill="#7a8593" font-family="'Cascadia Mono','SF Mono',Consolas,monospace" font-size="10" text-anchor="middle">Mar 2026</text>
<text x="911.70" y="630" fill="#7a8593" font-family="'Cascadia Mono','SF Mono',Consolas,monospace" font-size="10" text-anchor="middle">May 2026</text>
<text x="1121.00" y="630" fill="#7a8593" font-family="'Cascadia Mono','SF Mono',Consolas,monospace" font-size="10" text-anchor="middle">Jul 2026</text>
<path d="M 958.61 421.42 L 962.22 420.33 L 965.83 421.68 L 969.43 494.21 L 980.26 522.92 L 983.87 526.96 L 987.48 530.95 L 991.09 513.64 L 994.70 514.53 L 1005.52 510.19 L 1009.13 515.10 L 1012.74 503.65 L 1016.35 502.37 L 1030.78 501.95 L 1034.39 505.11 L 1038.00 505.90 L 1041.61 506.91 L 1045.22 511.31 L 1056.04 508.30 L 1059.65 510.71 L 1063.26 516.22 L 1066.87 521.98 L 1081.30 526.27 L 1084.91 534.78 L 1088.52 528.46 L 1092.13 536.68 L 1095.74 543.27 L 1106.57 547.32 L 1110.17 560.71 L 1113.78 562.75 L 1117.39 564.58 L 1121.00 573.33" fill="none" stroke="#1a2332" stroke-width="2.2" stroke-linecap="round" stroke-linejoin="round"/>
<path d="M 958.61 422.19 L 962.22 423.16 L 965.83 427.66 L 969.43 516.74 L 980.26 553.68 L 983.87 545.51 L 987.48 549.92 L 991.09 523.95 L 994.70 528.87 L 1005.52 519.51 L 1009.13 522.59 L 1012.74 522.06 L 1016.35 520.63 L 1030.78 519.73 L 1034.39 519.18 L 1038.00 523.95 L 1041.61 524.78 L 1045.22 549.21 L 1056.04 541.82 L 1059.65 542.38 L 1063.26 545.41 L 1066.87 550.81 L 1081.30 543.50 L 1084.91 547.31 L 1088.52 539.91 L 1092.13 544.97 L 1095.74 545.30 L 1106.57 543.71 L 1110.17 551.08 L 1113.78 552.55 L 1117.39 553.72 L 1121.00 565.79" fill="none" stroke="#123c69" stroke-width="2.2" stroke-linecap="round" stroke-linejoin="round" stroke-dasharray="8 5"/>
<path d="M 958.61 426.38 L 962.22 428.27 L 965.83 431.03 L 969.43 314.07 L 980.26 261.14 L 983.87 281.58 L 987.48 272.12 L 991.09 231.38 L 994.70 212.53 L 1005.52 212.38 L 1009.13 218.90 L 1012.74 215.89 L 1016.35 218.72 L 1030.78 215.47 L 1034.39 206.67 L 1038.00 213.42 L 1041.61 219.50 L 1045.22 222.66 L 1056.04 218.74 L 1059.65 217.97 L 1063.26 231.45 L 1066.87 234.37 L 1081.30 235.51 L 1084.91 233.02 L 1088.52 240.38 L 1092.13 256.99 L 1095.74 251.86 L 1106.57 250.65 L 1110.17 258.64 L 1113.78 270.60 L 1117.39 287.08 L 1121.00 309.63" fill="none" stroke="#5a6570" stroke-width="2.2" stroke-linecap="round" stroke-linejoin="round" stroke-dasharray="2 4"/>
<line x1="1121" y1="309.63" x2="1129" y2="309.63" stroke="#5a6570" stroke-width="1"/><text x="1133" y="313.63" fill="#5a6570" font-family="'Segoe UI',Helvetica,Arial,sans-serif" font-size="11">LightGBM +0.063</text>
<line x1="1121" y1="565.79" x2="1129" y2="565.79" stroke="#123c69" stroke-width="1"/><text x="1133" y="569.79" fill="#123c69" font-family="'Segoe UI',Helvetica,Arial,sans-serif" font-size="11">ridge-log -0.080</text>
<line x1="1121" y1="573.33" x2="1129" y2="583.79" stroke="#1a2332" stroke-width="1"/><text x="1133" y="587.79" fill="#1a2332" font-family="'Segoe UI',Helvetica,Arial,sans-serif" font-size="11">Gamma GLM -0.084</text>
<text x="18" y="420" fill="#5a6570" font-family="'Segoe UI',Helvetica,Arial,sans-serif" font-size="11" text-anchor="middle" transform="rotate(-90 18 420)">Cumulative loss difference</text>
<text x="32" y="686" fill="#5a6570" font-family="'Segoe UI',Helvetica,Arial,sans-serif" font-size="14">Above zero, option flow had helped up to that date; below zero, it had not.</text>
<text x="32" y="716" fill="#5a6570" font-family="'Segoe UI',Helvetica,Arial,sans-serif" font-size="14">Descriptive path only; it is not a statistical test or a state-promotion decision.</text>
</svg>
